<?xml version="1.0" ?><!DOCTYPE svg  PUBLIC '-//W3C//DTD SVG 1.1//EN'  'http://www.w3.org/Graphics/SVG/1.1/DTD/svg11.dtd'><svg enable-background="new 0 0 500 500" height="500px" id="Layer_1" version="1.1" viewBox="0 0 500 500" width="500px" xml:space="preserve" xmlns="http://www.w3.org/2000/svg" xmlns:xlink="http://www.w3.org/1999/xlink"><path clip-rule="evenodd" d="M200.529,227.287c0,19.445,11.081,36.255,27.257,44.523v132.643  c0,9.992-8.181,18.172-18.17,18.172h-49.972c-12.536,0-22.713,10.175-22.713,22.716c0,12.536,10.177,22.711,22.713,22.711h181.708  c12.54,0,22.716-10.175,22.716-22.711c0-12.541-10.176-22.716-22.716-22.716h-49.97c-9.988,0-18.168-8.18-18.168-18.172V271.81  c16.166-8.268,27.254-25.078,27.254-44.523c0-27.621-22.349-49.97-49.969-49.97C222.878,177.317,200.529,199.666,200.529,227.287z   M127.845,229.105c0,22.713,6.086,43.973,16.628,62.329l1.366,2.086c3.717,7.442,11.356,12.536,20.167,12.536  c12.536,0,22.713-10.267,22.713-22.979c0-4.367-1.189-8.455-3.272-11.906l-2.459-4.18c-6.174-11.268-9.714-24.169-9.714-37.886  c0-43.067,34.62-79.045,77.227-79.045c42.606,0,77.227,35.978,77.227,79.045c0,13.717-3.549,26.618-9.724,37.886l-2.448,4.18  c-2.095,3.451-3.275,7.539-3.275,11.906c0,12.713,10.176,22.979,22.715,22.979c8.808,0,16.438-5.094,20.167-12.536l1.364-2.086  c10.542-18.356,16.629-39.616,16.629-62.329c0-68.417-54.876-124.473-122.655-124.473  C182.722,104.632,127.845,160.688,127.845,229.105z M55.162,229.105c0,44.423,14.533,85.398,39.163,118.385l1.633,2.273  c4.08,5.624,10.807,9.263,18.26,9.263c12.536,0,22.713-10.268,22.713-22.892c0-5.269-1.721-10.188-4.721-14.088l-1.729-2.361  c-18.811-25.252-29.893-56.606-29.893-90.58c0-83.588,67.139-151.73,149.912-151.73c82.764,0,149.909,68.142,149.909,151.73  c0,33.974-11.088,65.328-29.891,90.58l-1.73,2.361c-2.996,3.9-4.719,8.819-4.719,14.088c0,12.624,10.175,22.892,22.715,22.892  c7.443,0,14.176-3.639,18.26-9.263l1.632-2.273c24.63-32.986,39.164-73.962,39.164-118.385  c0-108.938-87.495-197.156-195.339-197.156C142.654,31.949,55.162,120.168,55.162,229.105z" fill="#010101" fill-rule="evenodd"/></svg>